<?xml version="1.0" standalone="no"?>
<!DOCTYPE svg PUBLIC "-//W3C//DTD SVG 20010904//EN"
 "http://www.w3.org/TR/2001/REC-SVG-20010904/DTD/svg10.dtd">
<svg version="1.0" xmlns="http://www.w3.org/2000/svg"
 width="846.000000pt" height="295.000000pt" viewBox="0 0 846.000000 295.000000"
 preserveAspectRatio="xMidYMid meet">

<g transform="translate(0.000000,295.000000) scale(0.100000,-0.100000)"
fill="#000000" stroke="none">
<path d="M7550 2154 c-107 -6 -201 -13 -207 -13 -7 -1 -13 -10 -13 -21 0 -11
-7 -20 -15 -20 -8 0 -15 9 -15 20 0 11 -6 20 -12 20 -15 0 -349 -18 -458 -25
-41 -3 -145 -7 -230 -9 -241 -8 -371 -16 -422 -28 -44 -9 -47 -12 -42 -35 6
-23 4 -25 -17 -18 -40 12 -44 23 -19 45 30 26 18 26 -29 -1 -35 -19 -40 -20
-73 -6 -29 12 -57 13 -169 5 -95 -7 -139 -15 -151 -25 -16 -14 -18 -14 -24 0
-4 11 -14 15 -32 12 -15 -3 -144 -10 -286 -16 l-260 -11 -26 -28 c-32 -34 -92
-37 -98 -6 -3 16 0 18 22 12 17 -4 26 -2 26 5 0 8 -31 10 -110 7 -60 -2 -112
-6 -114 -9 -3 -2 -6 -18 -8 -34 -2 -25 1 -31 20 -33 20 -3 23 0 20 19 -2 16 3
25 14 27 22 4 20 -44 -2 -59 -15 -11 9 -10 385 11 94 6 242 13 330 16 88 4
167 10 175 15 11 7 10 8 -7 6 -12 -1 -22 3 -22 8 0 13 41 8 50 -7 5 -8 35 -9
101 -4 51 4 110 7 130 6 33 -1 37 2 40 27 2 17 10 29 20 31 19 4 48 -19 48
-37 0 -15 53 -14 68 1 10 10 17 10 32 0 17 -10 20 -10 20 3 0 8 7 15 15 15 8
0 24 9 35 20 21 21 45 26 55 11 3 -6 -10 -17 -30 -27 -19 -9 -35 -19 -35 -22
0 -4 205 2 383 12 37 2 74 9 82 16 11 9 18 10 29 1 20 -17 283 -3 290 15 6 17
46 19 46 3 0 -6 -7 -9 -15 -5 -8 3 -15 1 -15 -5 0 -6 12 -8 28 -5 15 3 97 8
182 12 85 3 160 11 167 16 7 5 26 7 43 3 24 -5 35 -3 46 12 11 15 15 16 23 4
7 -11 42 -13 180 -9 106 3 176 9 182 15 7 7 9 25 5 47 l-7 36 -67 -1 c-37 -1
-155 -8 -262 -15z m55 -35 c4 -6 5 -13 2 -16 -8 -7 -47 7 -47 18 0 13 37 11
45 -2z m-608 -56 c-9 -9 -19 -14 -23 -11 -10 10 6 28 24 28 15 0 15 -1 -1 -17z
m-1229 -61 c3 -9 -2 -13 -14 -10 -9 1 -19 9 -22 16 -3 9 2 13 14 10 9 -1 19
-9 22 -16z m-628 -22 c0 -13 -7 -20 -20 -20 -22 0 -23 1 -14 24 9 23 34 20 34
-4z"/>
<path d="M4479 1999 c-69 -3 -135 -12 -148 -18 -18 -10 -26 -10 -39 1 -15 12
-15 10 1 -14 12 -20 14 -29 5 -34 -7 -4 -13 -3 -15 3 -2 6 -13 9 -23 6 -24 -6
-26 9 -5 27 27 22 9 22 -29 -1 -31 -18 -39 -19 -53 -8 -14 12 -16 12 -11 -1 2
-8 17 -16 31 -18 19 -2 29 -11 33 -28 5 -18 13 -24 34 -24 16 0 32 5 36 11 3
6 17 9 30 6 13 -2 24 0 24 4 0 5 6 9 14 9 7 0 25 11 38 25 16 16 32 23 42 19
24 -9 20 -20 -14 -34 -65 -27 -45 -33 86 -25 71 5 145 8 165 7 35 -2 37 0 43
33 4 20 11 33 16 30 6 -3 7 1 4 9 -3 9 -11 17 -18 18 -26 4 -129 3 -247 -3z"/>
<path d="M7420 1985 c-11 -30 -35 -34 -27 -5 4 17 2 19 -21 14 -72 -18 -127
-70 -169 -159 -24 -53 -28 -72 -28 -160 0 -155 46 -258 137 -305 23 -12 54
-28 68 -36 29 -16 201 -19 230 -4 12 6 16 17 13 30 -5 17 0 20 33 20 26 0 34
3 25 9 -9 6 -10 11 -2 15 16 10 31 -2 24 -19 -11 -30 27 -3 56 39 46 66 63
130 63 232 1 94 -14 161 -40 180 -8 6 -12 15 -9 21 9 15 -60 91 -102 112 -46
24 -128 41 -192 41 -44 0 -51 -3 -59 -25z m70 -10 c0 -8 -9 -15 -20 -15 -11 0
-20 7 -20 15 0 8 9 15 20 15 11 0 20 -7 20 -15z m-175 -75 c-3 -5 -13 -10 -21
-10 -8 0 -12 5 -9 10 3 6 13 10 21 10 8 0 12 -4 9 -10z m262 -11 c23 -11 53
-35 65 -52 12 -18 25 -34 29 -37 9 -6 29 -146 29 -199 0 -22 -6 -44 -15 -51
-8 -7 -15 -20 -15 -29 -1 -21 -55 -81 -74 -81 -8 0 -19 -7 -24 -17 -23 -40
-213 20 -226 71 -7 28 -25 33 -58 15 -11 -6 -22 -8 -25 -5 -10 10 19 36 39 36
15 0 18 4 13 18 -16 42 -17 149 -1 203 20 70 48 106 100 130 54 24 110 24 163
-2z m158 -49 c8 -13 -20 -24 -42 -16 -15 6 -15 8 -3 16 20 13 37 12 45 0z
m-521 -149 c3 -4 3 -11 0 -14 -8 -8 -34 3 -34 14 0 11 27 12 34 0z m64 -29 c2
-7 -6 -12 -17 -12 -21 0 -27 11 -14 24 9 9 26 2 31 -12z"/>
<path d="M3980 1970 c-30 -4 -98 -8 -151 -9 -86 -1 -97 -3 -95 -18 1 -13 -6
-18 -24 -18 -16 0 -24 5 -22 14 3 15 -62 14 -693 -20 -333 -17 -403 -24 -418
-37 -15 -13 -20 -14 -26 -3 -10 15 -188 11 -466 -11 -180 -13 -221 -16 -390
-22 -77 -2 -259 -12 -405 -21 -146 -8 -359 -20 -475 -25 -234 -10 -279 -16
-271 -36 8 -21 -29 -37 -44 -19 -7 8 -9 15 -4 16 5 0 0 4 -11 9 -23 10 -126
13 -149 4 -18 -7 -10 -34 10 -34 21 0 17 -18 -6 -30 -31 -17 -13 -33 29 -26
20 4 117 9 216 12 99 4 190 10 202 15 13 5 35 6 50 3 27 -5 748 30 868 42 33
3 66 11 73 16 8 7 16 7 25 0 12 -10 435 3 467 15 8 3 49 6 90 7 170 4 254 9
233 13 -13 2 -23 9 -23 14 0 14 48 11 57 -4 7 -11 48 -11 228 -1 121 7 348 18
505 24 403 17 433 20 445 48 6 12 16 20 23 17 8 -3 18 -5 23 -5 5 0 9 -7 9
-15 0 -10 10 -15 33 -14 27 0 29 2 12 9 -19 9 -19 9 3 16 12 3 22 13 22 20 0
8 7 14 15 14 8 0 15 -7 15 -15 0 -8 -4 -15 -9 -15 -5 0 -11 -7 -15 -15 -4 -11
1 -15 19 -15 18 0 25 5 25 20 0 23 18 27 26 5 5 -11 22 -15 70 -15 64 0 64 0
58 25 -5 21 -3 24 11 19 11 -5 7 3 -9 19 -31 31 -76 39 -156 27z m-75 -50 c3
-6 -1 -13 -10 -16 -19 -8 -30 0 -20 15 8 14 22 14 30 1z m-215 -20 c0 -5 -7
-10 -15 -10 -8 0 -15 5 -15 10 0 6 7 10 15 10 8 0 15 -4 15 -10z m-1032 -58
c2 -7 -3 -12 -12 -12 -9 0 -16 7 -16 16 0 17 22 14 28 -4z m-579 -38 c-6 -7
-15 -11 -21 -8 -5 3 -4 12 3 20 6 7 15 11 21 8 5 -3 4 -12 -3 -20z m-703 -25
c3 -6 0 -15 -7 -20 -22 -14 -29 -11 -29 11 0 21 24 27 36 9z m-633 -27 c19
-20 13 -32 -14 -32 -16 0 -39 27 -39 44 0 14 38 5 53 -12z m-271 -34 c-15 -15
-26 -4 -18 18 5 13 9 15 18 6 9 -9 9 -15 0 -24z"/>
<path d="M6925 1973 c-22 -3 -34 -13 -45 -36 -8 -18 -19 -32 -25 -32 -18 0
-17 38 1 52 16 12 15 13 -12 13 -16 0 -39 -7 -51 -15 -12 -9 -26 -15 -30 -14
-4 1 -16 -1 -26 -6 -12 -5 -24 -1 -37 10 -16 15 -30 17 -81 11 -34 -3 -68 -11
-75 -17 -17 -14 -18 -53 -1 -66 36 -29 122 -24 130 8 3 10 12 19 21 19 19 0
22 -26 4 -33 -7 -2 2 -7 20 -11 28 -7 32 -12 32 -39 1 -18 6 -93 11 -167 6
-74 10 -155 9 -178 0 -24 4 -50 10 -57 8 -9 8 -15 0 -20 -17 -10 -11 -50 11
-79 15 -19 29 -26 52 -25 18 1 24 3 14 6 -28 7 -14 28 22 31 28 3 32 6 27 25
-3 12 -6 30 -6 40 0 9 -7 17 -15 17 -19 0 -19 10 0 24 12 9 13 33 5 161 -5 83
-10 176 -10 208 0 56 1 58 31 64 17 3 33 12 36 19 7 19 38 17 58 -3 13 -13 18
-14 25 -3 4 7 15 10 23 7 18 -7 47 22 47 46 0 9 -8 20 -17 26 -22 11 -118 20
-158 14z m-115 -53 c0 -5 -6 -10 -14 -10 -8 0 -18 5 -21 10 -3 6 3 10 14 10
12 0 21 -4 21 -10z m227 -7 c-9 -9 -19 -14 -23 -11 -10 10 6 28 24 28 15 0 15
-1 -1 -17z m-221 -67 c3 -8 15 -16 26 -19 11 -3 17 -10 14 -16 -12 -19 -66 15
-66 41 0 14 20 9 26 -6z m22 -73 c2 -8 -5 -13 -17 -13 -12 0 -21 6 -21 16 0
18 31 15 38 -3z m-13 -53 c-4 -14 -2 -20 8 -20 8 0 20 -7 27 -15 11 -13 8 -15
-13 -15 -29 0 -31 3 -41 43 -5 21 -3 27 9 27 12 0 15 -6 10 -20z m3 -203 c4
-19 -6 -21 -27 -8 -16 10 -5 34 12 28 7 -2 13 -11 15 -20z m42 -37 c0 -5 -7
-10 -15 -10 -8 0 -15 5 -15 10 0 6 7 10 15 10 8 0 15 -4 15 -10z m-30 -29 c0
-12 -29 -23 -41 -15 -5 3 -7 10 -4 15 8 12 45 12 45 0z"/>
<path d="M4750 1930 c0 -5 5 -10 10 -10 6 0 10 5 10 10 0 6 -4 10 -10 10 -5 0
-10 -4 -10 -10z"/>
<path d="M6287 1920 c-20 -24 -57 -27 -57 -5 0 13 -13 14 -87 9 -49 -4 -91
-12 -95 -18 -4 -6 -23 -9 -41 -8 -39 4 -61 -16 -28 -25 25 -6 28 -23 4 -23 -9
0 -13 -3 -10 -7 4 -3 2 -12 -4 -19 -8 -10 -9 -49 -4 -125 l7 -111 29 28 c16
15 29 34 29 42 0 25 25 6 28 -21 3 -23 0 -27 -22 -27 -16 0 -26 -6 -26 -14 0
-8 -9 -21 -20 -29 -16 -11 -19 -21 -14 -45 7 -33 18 -37 62 -26 12 4 22 13 22
20 0 8 9 14 19 14 10 0 21 6 24 14 4 9 31 16 81 21 85 8 92 16 49 57 -19 18
-41 27 -70 29 -54 4 -68 -9 -52 -45 7 -14 10 -27 8 -29 -44 -26 -71 -37 -79
-32 -18 11 -10 45 13 56 28 13 27 9 31 128 2 74 6 95 19 102 9 5 83 10 166 10
168 0 197 8 168 49 -8 12 -13 29 -10 36 4 11 -8 14 -59 14 -51 0 -67 -4 -81
-20z m-84 -45 c1 -5 -6 -11 -15 -13 -11 -2 -18 3 -18 13 0 17 30 18 33 0z
m-183 -61 c0 -17 -22 -14 -28 4 -2 7 3 12 12 12 9 0 16 -7 16 -16z"/>
<path d="M5425 1901 c-22 -4 -46 -10 -52 -14 -19 -12 -31 -69 -21 -95 4 -13 5
-29 1 -35 -4 -6 0 -8 10 -4 19 7 32 -9 32 -38 0 -13 7 -20 19 -20 27 0 31 -21
5 -28 -12 -3 -28 0 -36 9 -8 8 -18 12 -22 9 -11 -6 -1 -157 11 -172 5 -7 5
-13 -1 -17 -12 -8 -1 -89 13 -98 8 -6 6 -11 -4 -18 -13 -9 -13 -12 3 -21 21
-12 22 -29 2 -29 -8 0 -15 -7 -15 -16 0 -11 6 -14 20 -9 24 8 27 -10 4 -23
-21 -12 -14 -47 9 -46 9 1 17 -5 17 -13 0 -12 5 -11 30 3 21 13 26 21 17 27
-9 7 -9 10 1 14 15 6 6 23 -13 23 -8 0 -12 -6 -9 -14 3 -8 -3 -16 -15 -19 -37
-9 -33 12 9 39 22 15 40 33 40 40 0 8 5 14 10 14 7 0 8 27 4 79 -6 74 -5 80
15 91 13 6 36 9 54 5 43 -9 139 -64 132 -76 -9 -14 45 -79 66 -79 16 0 17 -3
7 -19 -9 -16 -7 -24 13 -49 36 -45 51 -51 98 -42 23 4 45 10 48 14 9 8 -24 76
-37 76 -5 0 -10 10 -10 23 0 29 -36 79 -98 133 l-47 42 27 11 c14 5 30 16 35
24 4 8 17 16 28 18 10 2 30 20 43 39 21 30 23 44 20 104 -4 65 -6 70 -45 106
-22 21 -58 43 -79 49 -42 12 -273 13 -339 2z m325 -52 c0 -11 -27 -12 -34 0
-3 4 -3 11 0 14 8 8 34 -3 34 -14z m64 -25 c13 -34 -15 -44 -49 -18 -17 13
-18 16 -5 24 23 15 47 12 54 -6z m-87 -8 c-3 -8 5 -24 18 -36 21 -20 23 -29
18 -69 -6 -48 -39 -90 -71 -92 -14 0 -14 -2 -2 -6 23 -9 52 -42 45 -53 -9 -14
-38 -12 -54 3 -11 10 -12 9 -6 -2 10 -18 -15 -33 -32 -19 -18 15 -16 45 3 52
33 13 1 20 -76 17 -76 -2 -80 -1 -88 21 -4 13 -7 41 -6 63 1 22 2 54 3 72 1
29 5 33 43 43 25 7 68 9 110 5 47 -5 68 -4 68 4 0 6 7 11 16 11 10 0 14 -6 11
-14z m-291 -42 c-3 -9 -6 -20 -6 -25 0 -5 -7 -9 -15 -9 -18 0 -20 21 -3 38 17
17 31 15 24 -4z m434 -109 c-7 -8 -19 -15 -27 -15 -13 0 -13 3 -3 15 7 8 19
15 27 15 13 0 13 -3 3 -15z m-460 -29 c0 -8 -4 -17 -9 -21 -12 -7 -24 12 -16
25 9 15 25 12 25 -4z m48 -175 c3 -8 -1 -12 -9 -9 -7 2 -15 10 -17 17 -3 8 1
12 9 9 7 -2 15 -10 17 -17z"/>
<path d="M4945 1871 c-68 -17 -161 -83 -184 -129 -29 -58 -35 -83 -18 -76 8 3
27 -7 43 -21 24 -22 26 -28 14 -37 -12 -8 -12 -9 3 -4 11 3 17 0 17 -9 0 -19
-21 -30 -30 -15 -4 7 -16 9 -29 5 -18 -5 -21 -2 -21 19 0 48 -18 27 -25 -29
-8 -60 11 -185 27 -185 6 0 8 9 5 21 -7 25 18 37 45 20 15 -9 22 -9 33 3 19
19 19 70 0 86 -9 8 -12 17 -7 24 5 6 20 48 33 94 22 76 27 85 62 104 24 14 37
29 37 42 0 27 17 53 27 43 4 -5 2 -11 -4 -15 -8 -5 -9 -13 -3 -22 8 -13 10
-12 10 3 0 9 5 17 10 17 6 0 10 -4 10 -9 0 -5 16 -12 35 -15 20 -4 57 -18 82
-31 26 -12 52 -21 59 -18 17 6 29 -16 15 -30 -9 -9 -14 -8 -21 3 -5 8 -10 10
-10 4 0 -6 9 -19 20 -29 11 -10 20 -24 20 -32 0 -18 50 -17 78 3 12 8 22 22
22 31 0 12 -3 13 -15 3 -15 -12 -55 -5 -55 11 0 5 13 9 29 9 29 0 30 0 15 28
-7 15 -14 32 -14 38 0 6 -7 17 -15 24 -12 10 -18 10 -30 0 -13 -10 -15 -9 -15
12 0 18 -9 29 -37 42 -42 20 -169 30 -218 17z m315 -142 c0 -12 -27 -11 -35 1
-11 17 5 32 21 19 8 -6 14 -15 14 -20z m-437 -14 c-4 -15 -36 -12 -41 3 -3 9
3 13 19 10 13 -1 23 -7 22 -13z m-38 -155 c3 -5 -1 -10 -9 -10 -8 0 -18 5 -21
10 -3 6 1 10 9 10 8 0 18 -4 21 -10z m15 -41 c0 -5 -15 -9 -32 -10 -18 0 -27
-3 -20 -6 18 -7 15 -23 -6 -23 -32 0 -22 39 13 49 32 9 45 6 45 -10z"/>
<path d="M4488 1841 c-15 -3 -37 -14 -48 -23 -18 -16 -50 -15 -50 2 0 4 -42 8
-94 8 -77 0 -94 -3 -89 -14 4 -11 -5 -14 -35 -14 -23 0 -44 -4 -47 -10 -3 -5
3 -10 14 -10 30 0 32 -13 5 -39 -25 -24 -25 -26 -18 -130 4 -58 8 -108 10
-110 7 -7 54 42 54 56 0 18 27 17 34 -2 9 -24 -4 -45 -29 -45 -14 0 -25 -7
-28 -20 -3 -11 -13 -20 -22 -20 -13 0 -16 -6 -11 -22 3 -13 6 -29 6 -35 0 -23
68 -16 80 8 7 12 18 18 26 15 8 -3 14 1 14 8 0 16 43 26 111 26 40 0 49 3 49
17 0 28 -47 60 -96 68 -25 3 -48 4 -51 2 -9 -9 -10 -57 -2 -57 22 0 5 -23 -26
-36 -57 -24 -76 4 -28 41 24 20 26 28 30 121 2 54 7 102 12 106 4 5 70 8 146
9 77 0 155 5 173 11 31 9 42 31 22 43 -5 3 -10 14 -10 24 0 13 -10 21 -31 25
-17 3 -34 5 -38 5 -3 -1 -18 -4 -33 -8z m-120 -63 c-7 -19 -38 -22 -38 -4 0
10 9 16 21 16 12 0 19 -5 17 -12z m-188 -53 c10 -12 10 -15 -4 -15 -9 0 -16 7
-16 15 0 8 2 15 4 15 2 0 9 -7 16 -15z"/>
<path d="M3687 1796 c-96 -35 -141 -97 -135 -188 4 -53 8 -62 45 -97 56 -54
143 -78 161 -45 6 11 16 14 31 9 28 -8 27 -23 -1 -27 -16 -3 1 -11 51 -27 111
-34 143 -79 107 -150 -17 -32 -53 -50 -116 -58 -63 -7 -99 13 -147 84 -31 48
-44 59 -70 61 -25 3 -35 -2 -49 -22 -15 -25 -15 -29 6 -82 26 -63 66 -99 136
-120 88 -26 224 -10 224 27 0 10 -5 21 -11 25 -17 10 10 24 48 24 17 0 33 -6
36 -12 6 -18 46 19 62 57 16 38 10 147 -11 186 -8 16 -23 29 -33 29 -10 0 -21
6 -24 14 -3 7 -15 16 -27 19 -16 4 -19 2 -11 -7 6 -7 7 -16 3 -20 -4 -4 -7
-13 -7 -18 0 -21 -24 -19 -35 2 -9 17 -8 25 4 39 15 17 12 19 -53 34 -82 20
-89 21 -73 5 20 -20 14 -28 -19 -28 -20 0 -29 4 -26 13 8 23 -13 47 -41 46
l-27 -1 28 -10 c15 -5 27 -14 27 -18 0 -28 -99 -39 -108 -12 -2 6 3 12 11 12
8 0 17 7 21 15 3 8 1 15 -4 15 -6 0 -10 7 -10 15 0 8 5 15 11 15 6 0 8 9 4 20
-3 11 0 32 9 47 19 37 30 66 28 78 -3 15 50 35 76 29 26 -7 30 -26 5 -23 -10
1 -25 1 -33 0 -26 -2 11 -21 41 -21 14 0 48 -11 75 -25 39 -20 59 -24 97 -21
26 3 47 3 47 1 0 -21 -23 -56 -34 -52 -21 8 -27 -3 -10 -20 13 -13 17 -13 39
1 30 20 34 69 9 104 -15 22 -17 22 -35 6 -25 -23 -78 -26 -111 -6 -16 9 -28
19 -28 23 0 4 32 10 71 14 l72 7 -31 20 c-30 19 -122 31 -122 16 0 -5 9 -8 20
-8 11 0 20 -4 20 -10 0 -5 -7 -10 -15 -10 -8 0 -15 -4 -15 -10 0 -5 -7 -10
-16 -10 -11 0 -14 5 -10 16 15 39 -56 55 -127 30z m-14 -41 c1 -5 -6 -11 -15
-13 -11 -2 -18 3 -18 13 0 17 30 18 33 0z m197 -234 c0 -5 -9 -13 -20 -16 -11
-3 -20 -11 -20 -16 0 -5 -9 -9 -20 -9 -11 0 -20 5 -20 10 0 6 6 10 14 10 8 0
16 7 20 15 6 16 46 21 46 6z m40 -66 c0 -8 -7 -15 -15 -15 -16 0 -20 12 -8 23
11 12 23 8 23 -8z m81 2 c-1 -12 -15 -9 -19 4 -3 6 1 10 8 8 6 -3 11 -8 11
-12z"/>
<path d="M3100 1753 c-41 -34 -57 -73 -36 -89 21 -15 20 -21 -3 -27 -15 -3
-31 -41 -70 -158 -28 -85 -64 -191 -81 -237 -16 -46 -30 -94 -30 -106 0 -47
74 -78 104 -45 7 8 18 34 25 59 19 73 32 99 50 104 9 3 72 6 140 8 l123 2 29
-59 c46 -97 92 -123 138 -79 11 10 12 16 2 28 -8 10 -9 15 -1 18 8 2 6 16 -5
46 -10 23 -22 39 -27 36 -6 -4 -8 2 -6 12 3 11 -12 53 -32 94 -21 41 -65 142
-100 223 -44 103 -72 155 -92 172 -40 34 -87 33 -128 -2z m90 -159 c0 -6 7
-17 15 -24 8 -7 15 -23 15 -35 0 -12 14 -52 30 -88 17 -37 30 -71 30 -77 0 -5
-20 -10 -44 -10 -68 0 -104 -10 -109 -31 -3 -10 -11 -19 -17 -19 -7 0 -10 8
-7 19 3 13 -1 21 -14 24 -18 5 -18 7 -3 49 8 23 22 72 30 108 8 36 22 80 30
98 15 31 17 32 30 15 7 -10 14 -23 14 -29z"/>
<path d="M2326 1741 c-73 -11 -100 -54 -80 -128 4 -13 13 -23 20 -23 8 0 15
-6 16 -12 0 -7 2 -17 3 -23 2 -5 3 -15 4 -21 0 -6 10 -10 21 -10 30 1 28 -19
-2 -22 -16 -2 -28 1 -28 7 0 6 -8 11 -18 11 -16 0 -17 -7 -9 -82 4 -46 7 -107
7 -137 -1 -35 4 -57 12 -63 11 -6 10 -10 -1 -17 -12 -8 -11 -13 10 -30 l24
-20 -22 -1 c-17 0 -23 -6 -23 -21 0 -18 2 -19 15 -9 9 7 19 10 23 6 4 -4 -1
-13 -11 -20 -30 -23 -13 -71 21 -59 10 4 13 2 8 -5 -10 -17 0 -15 30 5 19 12
22 18 12 25 -10 8 -10 11 0 15 6 2 10 9 6 14 -10 16 -24 10 -24 -11 0 -13 -7
-20 -19 -20 -32 0 -32 15 -1 33 16 10 39 31 51 48 19 27 21 39 15 94 -9 84 -3
95 48 95 46 0 151 -50 151 -72 1 -24 46 -78 65 -78 16 0 18 -5 14 -30 -5 -22
-2 -31 10 -36 9 -3 16 -10 16 -15 0 -15 39 -49 45 -39 3 5 18 8 34 8 56 -2 68
32 26 74 -15 15 -23 32 -19 41 3 10 -19 41 -65 90 -74 77 -84 97 -52 97 11 0
23 9 26 21 4 12 14 19 23 17 10 -2 28 9 41 25 25 29 22 49 -4 27 -12 -10 -15
-10 -15 3 0 16 26 30 40 22 14 -9 21 50 11 94 -10 47 -48 93 -96 119 -34 18
-271 26 -359 13z m314 -56 c0 -13 -4 -14 -20 -5 -11 6 -20 13 -20 15 0 3 9 5
20 5 11 0 20 -7 20 -15z m68 -33 c4 -24 -16 -29 -49 -12 -24 13 -24 27 -1 33
31 9 47 2 50 -21z m-86 -2 c-2 -7 7 -23 18 -35 18 -19 20 -30 14 -75 -5 -39
-12 -54 -28 -60 -12 -5 -17 -9 -12 -9 5 -1 3 -7 -3 -15 -9 -11 -8 -17 4 -29
23 -23 18 -37 -13 -37 -15 0 -33 -5 -40 -12 -8 -8 -15 -8 -27 2 -19 16 -20 50
0 50 8 0 15 5 15 11 0 6 -29 9 -81 8 -92 -2 -96 0 -99 71 -5 115 -4 117 43
128 23 5 71 6 107 2 51 -5 67 -4 73 7 10 17 33 11 29 -7z m-302 -60 c-6 -11
-15 -18 -21 -15 -13 9 -11 21 8 41 21 20 29 4 13 -26z m-20 -125 c-7 -8 -16
-15 -21 -15 -5 0 -9 7 -9 15 0 9 9 15 21 15 18 0 19 -2 9 -15z m49 -171 c3
-16 1 -17 -13 -5 -19 16 -21 34 -3 29 6 -3 14 -13 16 -24z"/>
<path d="M1967 1685 c-9 -19 -23 -35 -32 -35 -18 0 -20 31 -3 48 9 9 5 12 -19
12 -17 0 -36 -7 -43 -15 -7 -8 -16 -12 -21 -9 -5 3 -18 0 -30 -6 -16 -9 -24
-8 -40 6 -15 14 -31 16 -85 11 -68 -5 -84 -15 -84 -52 0 -34 20 -45 81 -45 48
0 57 3 62 20 3 11 12 20 21 20 21 0 20 -16 -1 -29 -15 -9 -13 -10 14 -11 17 0
34 -4 38 -9 6 -11 28 -307 26 -369 -1 -24 3 -51 9 -62 7 -12 7 -21 0 -25 -18
-11 -10 -56 15 -80 24 -25 69 -33 79 -16 3 5 0 8 -7 7 -6 0 -14 4 -17 9 -3 6
10 11 29 13 31 3 33 5 27 34 -3 17 -6 34 -6 39 0 5 -7 9 -15 9 -19 0 -19 10 0
24 13 10 13 37 4 209 -6 109 -8 205 -5 213 3 8 17 14 31 14 14 0 28 7 31 15 4
9 19 15 35 15 19 0 29 -5 29 -15 0 -18 17 -20 22 -3 3 7 15 13 28 13 30 0 49
29 34 52 -14 23 -45 31 -125 32 -65 1 -65 1 -82 -34z m-82 -16 c10 -15 -1 -23
-20 -15 -9 3 -13 10 -10 16 8 13 22 13 30 -1z m234 -15 c-6 -8 -15 -14 -20
-14 -14 0 -11 28 4 33 20 7 29 -4 16 -19z m-219 -68 c0 -7 9 -16 21 -19 12 -3
18 -10 14 -16 -4 -8 -13 -8 -28 0 -36 19 -49 49 -22 49 8 0 15 -6 15 -14z m18
-73 c2 -8 -5 -13 -17 -13 -12 0 -21 6 -21 16 0 18 31 15 38 -3z m-8 -43 c0 -5
-4 -10 -9 -10 -6 0 -13 5 -16 10 -3 6 1 10 9 10 9 0 16 -4 16 -10z m14 -30
c34 -13 33 -32 -1 -28 -17 2 -29 10 -31 21 -4 20 -2 20 32 7z m-14 -175 c10
-13 9 -15 -8 -15 -22 0 -36 13 -25 24 10 10 20 7 33 -9z m40 -45 c0 -5 -7 -10
-15 -10 -8 0 -15 5 -15 10 0 6 7 10 15 10 8 0 15 -4 15 -10z m-30 -29 c0 -12
-29 -23 -41 -15 -18 10 -9 24 16 24 14 0 25 -4 25 -9z"/>
<path d="M1113 1644 l-26 -26 7 -142 c15 -310 24 -442 31 -458 8 -19 64 -39
92 -32 10 2 90 8 179 13 88 6 168 13 177 17 19 7 22 45 8 73 -9 16 -25 17
-174 14 l-164 -5 -6 99 c-4 54 -7 124 -7 155 0 31 -4 59 -9 62 -13 8 -20 56
-8 56 6 0 8 33 5 86 -4 70 -8 89 -23 100 -28 21 -53 17 -82 -12z"/>
<path d="M6283 1663 c-27 -5 -31 -38 -6 -51 10 -6 14 -16 10 -26 -5 -12 0 -16
22 -16 20 0 30 6 34 20 3 11 13 20 22 20 12 0 15 -5 10 -20 -5 -14 -2 -20 10
-20 53 0 74 55 33 84 -21 15 -83 19 -135 9z"/>
<path d="M960 1636 c0 -10 9 -16 21 -16 24 0 21 23 -4 28 -10 2 -17 -3 -17
-12z"/>
<path d="M478 1629 c-11 -6 -18 -22 -18 -40 0 -37 45 -81 74 -73 10 4 22 0 27
-7 15 -26 32 6 25 46 -12 65 -64 100 -108 74z"/>
<path d="M887 1613 c-14 -14 -6 -30 21 -42 23 -10 25 -10 10 2 -21 17 -23 33
-5 40 8 4 6 6 -4 6 -9 1 -19 -2 -22 -6z"/>
<path d="M945 1591 c-3 -5 -1 -12 5 -16 22 -13 9 -34 -25 -41 l-36 -6 4 -67
c1 -36 9 -76 15 -88 8 -15 9 -23 2 -23 -6 0 -10 -38 -11 -97 -2 -130 -8 -156
-39 -164 l-25 -6 24 -4 c14 -2 26 -10 29 -18 4 -11 -14 -12 -94 -6 -120 9
-159 25 -176 71 -6 19 -17 34 -23 34 -6 0 -9 27 -7 74 2 41 -1 83 -7 94 -7 13
-7 22 1 30 16 16 0 115 -18 108 -7 -3 -16 -1 -19 4 -4 6 -15 10 -26 10 -10 0
-24 9 -31 20 -19 30 -41 27 -26 -5 8 -18 8 -28 -1 -38 -22 -27 -2 -47 46 -47
40 0 44 -2 32 -16 -8 -10 -24 -14 -46 -12 -30 4 -33 1 -33 -22 0 -16 8 -29 22
-35 34 -15 37 -39 4 -31 l-26 6 6 -57 c9 -93 12 -100 49 -118 38 -18 42 -42 6
-38 -23 3 -26 -4 -12 -26 7 -11 32 -15 92 -15 59 -1 83 -5 87 -14 3 -11 -10
-12 -68 -6 -86 8 -92 -6 -19 -43 53 -27 139 -30 242 -8 87 18 123 45 155 114
23 50 26 68 25 166 -1 221 -1 225 -31 236 l-27 11 23 15 c26 18 29 38 6 47 -8
3 -12 10 -9 16 4 6 11 8 16 5 5 -4 9 -1 9 4 0 13 -57 15 -65 2z m5 -96 c-14
-16 -50 -21 -50 -6 0 11 18 19 44 20 15 1 16 -2 6 -14z m55 -25 c-3 -5 -13
-10 -21 -10 -8 0 -12 5 -9 10 3 6 13 10 21 10 8 0 12 -4 9 -10z m10 -159 c7
-12 -12 -24 -25 -16 -11 7 -4 25 10 25 5 0 11 -4 15 -9z"/>
<path d="M4428 1563 c-20 -5 -13 -32 14 -51 10 -7 16 -18 13 -23 -4 -5 5 -9
19 -9 14 0 26 4 26 10 0 5 9 14 21 21 19 10 20 8 14 -10 -5 -18 -2 -21 24 -21
50 0 65 56 20 80 -17 10 -118 12 -151 3z"/>
<path d="M6076 1484 c-11 -8 -36 -14 -56 -14 l-37 0 -2 -65 c-1 -36 3 -83 9
-105 9 -34 15 -40 47 -46 19 -4 70 -3 112 1 42 5 128 9 193 9 99 1 119 4 137
20 31 28 27 61 -10 76 -22 10 -56 11 -127 5 -139 -11 -205 -12 -224 -3 -13 6
-17 21 -16 68 0 33 -1 62 -3 64 -2 3 -13 -2 -23 -10z m-16 -73 c0 -12 -29 -41
-41 -41 -13 0 -11 24 3 38 14 14 38 16 38 3z m66 -92 c3 -6 -1 -18 -10 -27
-15 -15 -16 -14 -16 11 0 27 13 36 26 16z m272 -33 c3 -12 -1 -17 -10 -14 -7
3 -15 13 -16 22 -3 12 1 17 10 14 7 -3 15 -13 16 -22z"/>
<path d="M5255 1442 c-4 -20 -17 -34 -41 -46 -22 -10 -40 -28 -47 -46 -6 -16
-18 -31 -27 -33 -9 -2 -5 -7 13 -11 26 -8 38 -26 17 -26 -15 0 -60 -50 -60
-66 0 -8 8 -14 18 -14 29 0 62 29 62 54 0 16 7 26 22 29 18 5 19 8 9 21 -8 9
-16 14 -20 12 -12 -8 -34 11 -27 23 12 18 64 13 86 -9 20 -20 20 -20 35 16 18
43 19 78 5 105 -15 28 -37 23 -45 -9z"/>
<path d="M4827 1410 c-8 -12 -20 -19 -26 -16 -21 13 -20 -13 1 -28 16 -12 19
-19 11 -27 -18 -18 -48 -6 -46 19 2 12 -1 22 -7 22 -22 0 -18 -21 13 -66 35
-53 93 -98 147 -114 45 -13 167 -13 175 0 3 6 -1 10 -9 10 -22 0 -20 13 3 27
10 6 20 22 23 36 4 23 4 23 -46 15 -28 -4 -61 -6 -73 -3 -12 3 -25 1 -28 -5
-8 -13 -72 -13 -81 1 -3 6 -1 16 6 22 10 9 14 9 17 0 3 -7 14 -13 25 -13 28 0
9 23 -37 44 -22 11 -32 22 -29 30 3 8 -1 27 -9 42 l-14 27 -16 -23z m229 -165
c10 -25 -7 -40 -23 -20 -7 11 -13 22 -13 27 0 14 30 9 36 -7z"/>
<path d="M4246 1391 c-3 -5 -28 -12 -55 -16 l-48 -7 1 -81 c1 -45 8 -93 15
-105 l13 -24 221 7 c245 8 271 14 265 63 -2 22 -11 30 -45 40 -35 11 -56 11
-130 0 -48 -8 -117 -11 -153 -8 l-65 5 3 61 c3 56 -8 89 -22 65z m-41 -101
c-17 -19 -35 -19 -35 0 0 5 7 16 16 25 25 25 43 2 19 -25z m85 -74 c0 -7 -7
-19 -15 -26 -13 -11 -15 -8 -15 14 0 16 5 26 15 26 8 0 15 -6 15 -14z m270
-21 c0 -8 -7 -15 -15 -15 -8 0 -15 7 -15 15 0 8 7 15 15 15 8 0 15 -7 15 -15z"/>
<path d="M7679 1266 c-21 -7 -43 -9 -51 -5 -8 4 -97 4 -199 -2 -625 -32 -619
-31 -619 -54 0 -17 -29 -13 -40 5 -7 12 -50 12 -262 3 -166 -8 -264 -16 -283
-25 -22 -10 -29 -10 -33 0 -2 6 -15 12 -28 12 -34 0 -97 -27 -90 -39 4 -5 2
-12 -3 -15 -12 -8 -34 20 -27 33 8 13 -194 7 -346 -9 -88 -10 -118 -16 -118
-27 0 -8 -7 -13 -17 -11 -11 2 -19 -7 -24 -26 -5 -17 -7 -31 -6 -32 3 -3 563
23 682 32 50 3 96 11 103 17 9 7 20 6 38 -2 35 -16 37 -15 52 19 17 37 39 39
48 5 6 -23 11 -25 59 -25 112 0 204 12 198 26 -3 9 2 14 17 14 16 0 20 -4 16
-15 -7 -18 10 -20 17 -2 4 9 8 9 16 -2 7 -11 16 -12 33 -5 13 5 39 8 58 7 85
-5 507 20 536 32 20 8 35 10 41 4 9 -9 481 7 491 16 1 1 0 21 -4 44 l-7 41
-106 0 c-61 -1 -122 -6 -142 -14z m-244 -56 c-3 -5 -10 -10 -16 -10 -5 0 -9 5
-9 10 0 6 7 10 16 10 8 0 12 -4 9 -10z m-715 -9 c0 -12 -20 -25 -27 -18 -7 7
6 27 18 27 5 0 9 -4 9 -9z m-380 -30 c0 -11 -39 -25 -47 -18 -3 3 -2 10 2 16
8 13 45 15 45 2z m-172 -41 c6 0 12 -4 12 -9 0 -4 -18 -8 -40 -8 -22 0 -40 3
-40 7 0 14 15 21 35 16 11 -3 26 -6 33 -6z m-560 -22 c-5 -15 -48 -24 -48 -10
0 14 12 22 33 22 10 0 17 -5 15 -12z"/>
<path d="M5325 1153 c-27 -2 -129 -8 -225 -14 -96 -7 -218 -14 -270 -16 -336
-14 -441 -21 -454 -32 -10 -8 -16 -9 -21 -1 -10 15 -78 12 -103 -6 -12 -8 -20
-20 -17 -25 13 -20 -50 2 -66 24 -3 5 -138 2 -300 -7 -162 -8 -451 -22 -644
-31 -474 -21 -736 -43 -752 -62 -6 -8 -16 -12 -22 -8 -6 3 -11 5 -11 3 0 -2
-4 -18 -10 -37 l-9 -34 137 7 c75 3 193 9 262 12 69 2 141 7 160 11 19 3 52 5
72 4 21 -2 42 0 48 4 6 3 110 8 233 10 122 3 239 7 259 10 54 7 569 35 650 35
39 0 68 4 68 10 0 6 -12 10 -26 10 -14 0 -23 4 -20 9 3 5 22 9 42 9 26 0 34
-4 30 -14 -9 -23 121 -19 147 4 15 12 21 14 24 5 3 -7 17 -13 32 -13 20 0 29
7 38 30 15 39 30 38 38 -1 l7 -32 97 7 c266 18 270 18 264 32 -4 10 5 14 33
14 37 -1 38 -1 19 -16 l-20 -16 20 5 c11 3 104 9 208 13 103 3 203 12 223 19
34 11 35 13 18 29 -12 13 -14 20 -5 29 22 22 10 28 -46 25 -32 -2 -80 -4 -108
-5z m-365 -48 c0 -8 -7 -15 -15 -15 -16 0 -20 12 -8 23 11 12 23 8 23 -8z
m252 -27 c-15 -15 -26 -4 -18 18 5 13 9 15 18 6 9 -9 9 -15 0 -24z m-715 -5
c4 -10 -37 -26 -45 -18 -3 3 1 12 8 20 14 17 31 16 37 -2z m-517 -22 c0 -14
-18 -23 -30 -16 -6 4 -8 11 -5 16 8 12 35 12 35 0z m-1480 -105 c0 -18 -31
-29 -44 -16 -8 8 -7 14 4 20 22 14 40 12 40 -4z"/>
<path d="M2190 989 c-185 -10 -293 -24 -298 -39 -5 -15 -31 -12 -49 5 -11 11
-28 14 -61 10 -26 -3 -177 -12 -337 -20 -462 -24 -485 -26 -485 -40 0 -7 7
-15 15 -19 8 -3 15 -12 15 -21 0 -11 -11 -15 -39 -15 -25 0 -41 -5 -44 -14 -5
-12 3 -14 41 -10 26 2 234 14 462 25 254 13 420 25 428 32 10 8 16 7 21 -2 6
-9 14 -10 27 -3 11 5 42 8 69 6 28 -2 122 1 210 6 195 11 260 30 208 59 -17 9
-16 11 1 30 19 21 19 21 -5 20 -13 -1 -94 -6 -179 -10z m150 -54 c0 -26 -14
-33 -25 -15 -9 14 1 40 15 40 5 0 10 -11 10 -25z m-540 6 c0 -12 -20 -25 -27
-18 -7 7 6 27 18 27 5 0 9 -4 9 -9z m30 -51 c0 -5 -9 -10 -20 -10 -11 0 -20 5
-20 10 0 6 9 10 20 10 11 0 20 -4 20 -10z"/>
<path d="M690 905 c-107 -6 -197 -13 -200 -14 -3 -2 -31 -2 -62 -1 l-58 1 0
-51 c0 -49 1 -52 23 -46 12 3 39 6 60 6 21 0 36 4 32 9 -9 16 12 22 25 6 8
-10 25 -13 53 -10 23 3 99 7 169 11 124 6 127 7 157 36 22 22 28 34 21 43 -5
6 -7 15 -3 18 3 4 0 6 -8 5 -8 0 -102 -6 -209 -13z"/>
</g>
</svg>
