<?xml version="1.0" standalone="no"?>
<!DOCTYPE svg PUBLIC "-//W3C//DTD SVG 20010904//EN"
 "http://www.w3.org/TR/2001/REC-SVG-20010904/DTD/svg10.dtd">
<svg version="1.0" xmlns="http://www.w3.org/2000/svg"
 width="846.000000pt" height="295.000000pt" viewBox="0 0 846.000000 295.000000"
 preserveAspectRatio="xMidYMid meet">

<g transform="translate(0.000000,295.000000) scale(0.100000,-0.100000)"
fill="#000000" stroke="none">
<path d="M7870 2177 c-3 -3 -106 -10 -230 -16 -272 -14 -318 -19 -316 -34 0
-7 -3 -12 -9 -12 -5 0 -9 6 -9 13 1 7 -9 12 -25 12 -30 0 -364 -19 -461 -26
-36 -3 -92 -4 -125 -4 -113 2 -495 -21 -521 -30 -17 -7 -32 -7 -45 0 -14 8
-29 6 -59 -10 -38 -19 -44 -20 -71 -6 -24 12 -51 13 -167 5 -92 -7 -142 -15
-151 -24 -12 -12 -16 -12 -25 -1 -9 12 -57 11 -295 -1 l-284 -14 -28 -30 c-33
-36 -49 -37 -49 -4 0 25 -1 25 -82 25 -121 0 -157 -8 -151 -31 7 -24 -2 -24
-26 0 -18 18 -31 20 -173 15 -84 -3 -176 -10 -204 -15 -29 -6 -63 -7 -78 -3
-17 4 -36 -1 -60 -15 -22 -14 -37 -18 -41 -11 -9 14 -28 13 -23 -2 3 -7 15
-15 29 -18 13 -3 28 -16 34 -28 7 -16 18 -22 42 -22 17 0 33 6 36 13 3 9 9 9
26 -1 18 -10 21 -10 21 3 0 8 7 15 15 15 8 0 24 9 35 20 21 21 45 26 54 12 3
-5 -12 -17 -32 -28 l-37 -19 60 -3 c33 -1 110 1 170 5 87 6 110 11 111 23 2
36 5 41 17 37 6 -2 12 -13 12 -25 0 -12 5 -21 10 -19 6 1 9 5 7 10 -1 4 7 7
17 7 12 0 21 8 23 22 4 30 26 34 26 4 0 -15 -9 -28 -22 -34 -30 -15 29 -14
334 3 140 8 324 18 408 22 84 3 155 10 159 16 3 5 -3 6 -16 2 -16 -5 -21 -2
-21 10 0 12 5 15 23 9 12 -4 25 -11 28 -16 6 -10 175 -9 194 1 5 3 24 4 42 2
28 -2 32 1 35 26 4 38 39 43 57 9 12 -22 71 -43 71 -25 0 12 38 17 49 6 8 -8
11 -7 11 5 0 9 12 18 30 22 18 3 30 12 30 21 0 8 9 15 20 15 11 0 20 -7 20
-15 0 -8 -8 -15 -19 -15 -10 0 -24 -7 -32 -16 -11 -14 3 -15 147 -11 267 8
304 11 315 27 7 13 10 13 18 1 7 -11 35 -12 150 -6 77 4 141 11 141 16 0 5 5
9 11 9 5 0 8 -4 4 -10 -6 -9 62 -7 275 11 63 5 131 9 151 9 24 0 39 5 43 15 7
20 26 19 26 -1 0 -16 67 -16 298 2 l72 6 -1 31 c0 34 -12 71 -19 64z m-265
-58 c4 -6 5 -12 3 -14 -7 -7 -48 7 -48 16 0 13 37 11 45 -2z m-1481 -48 c3 -4
-3 -16 -13 -25 -23 -21 -39 -4 -19 18 15 18 25 20 32 7z m876 -6 c-7 -8 -16
-12 -21 -9 -13 8 -1 24 18 24 13 0 13 -3 3 -15z m60 -15 c0 -5 -4 -10 -10 -10
-5 0 -10 5 -10 10 0 6 5 10 10 10 6 0 10 -4 10 -10z m-920 -9 c0 -6 -4 -13
-10 -16 -5 -3 -10 1 -10 9 0 9 5 16 10 16 6 0 10 -4 10 -9z m-372 -40 c3 -8
-1 -12 -9 -9 -7 2 -15 10 -17 17 -3 8 1 12 9 9 7 -2 15 -10 17 -17z m-782 -2
c7 -12 -15 -31 -28 -23 -4 3 -8 12 -8 20 0 17 26 19 36 3z m154 -19 c0 -19
-20 -27 -33 -13 -8 7 11 33 24 33 5 0 9 -9 9 -20z m-846 -16 c9 -23 7 -34 -5
-34 -6 0 -8 7 -5 16 5 14 4 15 -8 5 -20 -17 -40 -5 -23 14 16 19 33 19 41 -1z"/>
<path d="M7423 1992 c-3 -11 -12 -23 -20 -26 -11 -4 -13 -1 -8 14 6 19 3 20
-22 14 -84 -20 -153 -94 -185 -197 -42 -138 -4 -332 78 -396 79 -61 109 -74
188 -82 118 -12 179 3 169 42 -6 21 -4 22 42 16 44 -4 51 -2 76 24 79 85 107
242 68 390 -5 21 -16 39 -24 43 -8 3 -12 12 -9 20 9 23 -70 101 -128 126 -34
15 -81 24 -136 28 -78 5 -83 4 -89 -16z m67 -18 c0 -9 -7 -14 -17 -12 -25 5
-28 28 -4 28 12 0 21 -6 21 -16z m-175 -74 c-3 -5 -13 -10 -21 -10 -8 0 -12 5
-9 10 3 6 13 10 21 10 8 0 12 -4 9 -10z m262 -11 c24 -11 43 -24 43 -28 0 -3
13 -21 30 -39 27 -30 31 -43 42 -142 11 -99 10 -111 -5 -128 -9 -10 -17 -25
-17 -33 -1 -19 -56 -79 -74 -79 -7 0 -20 -7 -27 -16 -16 -20 -71 -14 -153 16
-46 18 -59 28 -71 56 l-14 33 -35 -14 c-24 -10 -36 -12 -36 -4 0 6 14 16 31
22 24 9 29 16 24 32 -14 47 -17 137 -6 182 34 136 152 198 268 142z m147 -45
c20 -8 11 -24 -15 -24 -19 0 -25 11 -12 23 8 8 8 8 27 1z m-519 -154 c3 -5 -1
-10 -9 -10 -9 0 -16 5 -16 10 0 6 4 10 9 10 6 0 13 -4 16 -10z m75 -30 c0 -5
-9 -10 -21 -10 -11 0 -17 5 -14 10 3 6 13 10 21 10 8 0 14 -4 14 -10z m425
-260 c3 -5 -1 -10 -9 -10 -9 0 -16 5 -16 10 0 6 4 10 9 10 6 0 13 -4 16 -10z"/>
<path d="M3965 1970 c-33 -4 -105 -9 -160 -10 -55 -1 -92 -4 -82 -7 10 -3 16
-10 14 -16 -5 -16 -53 -15 -49 1 4 20 -86 17 -988 -34 -89 -5 -118 -10 -128
-23 -11 -13 -14 -14 -21 -2 -8 12 -49 12 -278 2 -147 -7 -288 -16 -313 -21
-25 -5 -57 -6 -71 -3 -15 3 -36 0 -48 -6 -12 -7 -27 -9 -33 -5 -14 9 -63 7
-278 -6 -241 -16 -506 -30 -730 -40 -228 -9 -262 -14 -258 -39 2 -11 -4 -16
-19 -16 -13 0 -23 4 -22 10 1 16 -33 24 -110 24 -63 1 -72 -1 -67 -15 3 -9 6
-20 6 -25 0 -6 5 -7 10 -4 6 3 10 -1 10 -9 0 -9 -7 -16 -15 -16 -8 0 -15 -7
-15 -16 0 -14 9 -16 63 -10 34 3 132 8 217 11 85 3 169 10 185 14 17 5 44 6
60 4 32 -5 797 33 880 43 28 4 53 11 57 17 4 8 11 7 20 -1 17 -13 456 4 474
19 6 5 19 7 27 3 16 -6 689 23 737 31 14 3 151 9 305 15 412 15 453 18 461 42
6 21 51 22 47 0 -2 -8 16 -12 62 -12 58 0 65 2 65 20 0 24 8 26 24 6 12 -16
29 -19 94 -17 39 1 43 3 37 21 -5 15 -2 20 11 20 13 0 11 6 -12 26 -32 31 -75
37 -169 24z m-44 -70 c10 0 19 -4 19 -10 0 -5 -9 -10 -20 -10 -11 0 -20 5 -20
10 0 6 -7 10 -15 10 -18 0 -20 17 -2 23 6 2 13 -2 15 -10 2 -7 12 -13 23 -13z
m37 11 c3 -8 -1 -12 -9 -9 -7 2 -15 10 -17 17 -3 8 1 12 9 9 7 -2 15 -10 17
-17z m-273 -11 c3 -5 -1 -10 -9 -10 -9 0 -16 5 -16 10 0 6 4 10 9 10 6 0 13
-4 16 -10z m-1025 -62 c0 -13 -23 -5 -28 10 -2 7 2 10 12 6 9 -3 16 -11 16
-16z m-40 -16 c0 -4 -11 -9 -25 -10 -14 -1 -25 3 -25 8 0 6 11 10 25 10 14 0
25 -4 25 -8z m-535 -12 c-3 -5 -13 -10 -21 -10 -8 0 -12 5 -9 10 3 6 13 10 21
10 8 0 12 -4 9 -10z m-711 -29 c3 -5 -1 -14 -8 -20 -16 -13 -32 2 -21 19 8 12
22 13 29 1z m-634 -26 c22 -26 -4 -43 -30 -20 -11 10 -20 22 -20 27 0 14 37 9
50 -7z m-260 -25 c0 -5 -7 -10 -15 -10 -8 0 -15 5 -15 10 0 6 7 10 15 10 8 0
15 -4 15 -10z"/>
<path d="M6910 1974 c-9 -3 -21 -18 -27 -34 -6 -17 -18 -30 -27 -30 -22 0 -20
36 2 49 14 8 10 10 -19 11 -21 0 -42 -7 -49 -15 -7 -8 -16 -12 -21 -9 -5 3
-18 0 -30 -6 -16 -9 -24 -8 -38 4 -20 18 -79 21 -134 5 -36 -10 -38 -12 -35
-47 3 -35 6 -38 45 -46 49 -10 93 -1 93 18 0 15 29 30 39 20 3 -3 -2 -12 -13
-19 -17 -13 -15 -14 16 -20 l35 -7 12 -171 c6 -95 12 -209 12 -255 1 -70 5
-87 23 -107 11 -13 28 -25 36 -26 30 -3 50 1 50 11 0 5 -6 7 -14 4 -8 -3 -17
-1 -21 5 -3 6 0 11 7 12 7 1 22 2 33 3 12 0 20 8 19 19 -3 58 -5 67 -19 67 -8
0 -15 5 -15 10 0 6 7 10 16 10 14 0 16 11 10 83 -3 45 -9 141 -12 213 l-6 132
33 7 c19 4 38 14 44 21 11 14 55 9 55 -7 0 -5 7 -9 16 -9 8 0 12 5 8 11 -4 7
0 9 14 5 39 -13 70 47 38 74 -15 12 -149 23 -176 14z m-100 -54 c0 -5 -6 -10
-14 -10 -8 0 -18 5 -21 10 -3 6 3 10 14 10 12 0 21 -4 21 -10z m230 1 c0 -12
-20 -25 -27 -18 -7 7 6 27 18 27 5 0 9 -4 9 -9z m-190 -114 c0 -10 -42 12 -52
27 -4 5 -4 14 -2 18 6 9 54 -31 54 -45z m-12 -34 c2 -8 -5 -13 -17 -13 -12 0
-21 6 -21 16 0 18 31 15 38 -3z m-13 -43 c3 -5 1 -10 -4 -10 -6 0 -11 5 -11
10 0 6 2 10 4 10 3 0 8 -4 11 -10z m33 -48 c3 -9 -3 -13 -19 -10 -12 1 -24 9
-27 16 -3 9 3 13 19 10 12 -1 24 -9 27 -16z m-33 -153 c10 -15 -1 -23 -20 -15
-9 3 -13 10 -10 16 8 13 22 13 30 -1z m40 -49 c-3 -5 -10 -10 -16 -10 -5 0 -9
5 -9 10 0 6 7 10 16 10 8 0 12 -4 9 -10z m-25 -29 c0 -12 -29 -23 -41 -15 -5
3 -7 10 -4 15 8 12 45 12 45 0z"/>
<path d="M6280 1920 c-17 -23 -38 -26 -46 -6 -4 11 -25 14 -92 12 -48 -1 -87
-6 -87 -12 0 -5 -20 -11 -44 -14 -45 -5 -71 -30 -32 -30 12 0 21 -4 21 -10 0
-5 -7 -10 -16 -10 -8 0 -13 -4 -9 -9 3 -5 1 -12 -5 -16 -11 -7 -12 -99 -2
-184 l7 -53 28 27 c15 15 27 34 27 42 0 26 25 8 28 -20 3 -23 0 -27 -22 -27
-16 0 -26 -6 -26 -14 0 -8 -9 -21 -20 -29 -16 -11 -19 -21 -14 -45 7 -33 18
-37 62 -26 12 4 22 13 22 20 0 8 9 14 19 14 10 0 21 7 25 15 3 9 18 15 39 15
19 0 55 3 79 6 38 5 45 9 41 25 -4 13 0 19 12 19 12 0 16 -6 12 -20 -4 -16 0
-20 23 -20 19 0 29 6 33 20 3 11 12 20 20 20 10 0 13 -7 10 -20 -7 -26 26 -27
57 -2 44 36 0 82 -79 82 -70 0 -99 -10 -94 -31 6 -22 -13 -25 -36 -5 -18 15
-110 31 -112 19 -7 -47 -6 -63 2 -63 17 0 9 -20 -8 -20 -10 0 -27 -7 -37 -15
-10 -8 -23 -12 -27 -9 -18 10 -8 41 15 52 27 12 33 39 35 156 1 39 4 72 7 75
3 3 39 6 82 6 274 4 279 5 259 68 l-12 37 -65 0 c-54 0 -68 -4 -80 -20z m-80
-45 c0 -8 -7 -15 -15 -15 -8 0 -15 7 -15 15 0 8 7 15 15 15 8 0 15 -7 15 -15z
m-180 -61 c0 -8 -4 -12 -10 -9 -5 3 -10 10 -10 16 0 5 5 9 10 9 6 0 10 -7 10
-16z"/>
<path d="M5435 1903 c-11 -2 -30 -6 -43 -9 -50 -11 -65 -129 -19 -150 12 -5
22 -18 22 -29 0 -13 8 -21 23 -23 12 -2 22 -8 22 -14 0 -11 -41 -7 -73 7 -18
7 -18 3 -13 -56 4 -35 9 -100 11 -143 2 -51 8 -82 17 -88 10 -6 10 -10 -2 -18
-13 -9 -13 -12 3 -21 21 -12 22 -29 2 -29 -9 0 -15 -9 -15 -21 0 -18 2 -19 15
-9 9 7 19 10 23 6 4 -4 -1 -12 -11 -17 -21 -12 -22 -42 -2 -59 8 -7 15 -9 15
-4 0 5 4 4 8 -3 5 -8 17 -6 42 8 22 11 28 18 18 19 -10 0 -18 5 -18 11 0 7 9
9 23 6 21 -6 21 -5 3 8 -10 8 -23 16 -29 18 -5 1 2 16 17 32 27 29 27 32 21
106 -8 86 -5 92 55 91 39 -1 164 -62 142 -70 -16 -5 45 -82 65 -82 10 0 12 -6
8 -20 -9 -28 62 -115 81 -99 7 6 17 8 23 5 15 -10 61 16 61 34 0 9 -11 29 -25
44 -13 14 -22 32 -19 40 6 16 -63 106 -105 136 -32 22 -41 50 -17 50 8 0 21 8
28 19 7 10 22 20 33 22 37 8 65 66 65 136 0 60 -2 66 -41 108 -25 27 -56 49
-78 55 -34 9 -294 12 -336 3z m315 -53 c0 -5 -6 -10 -14 -10 -8 0 -18 5 -21
10 -3 6 3 10 14 10 12 0 21 -4 21 -10z m60 -14 c0 -2 3 -11 6 -19 7 -20 -22
-29 -46 -14 -25 15 -25 24 -2 30 24 7 42 8 42 3z m-85 -16 c3 -5 -1 -10 -10
-10 -9 0 -13 5 -10 10 3 6 8 10 10 10 2 0 7 -4 10 -10z m-76 -10 c98 -13 120
-32 113 -98 -5 -49 -37 -91 -70 -93 -12 0 -13 -2 -3 -6 23 -9 52 -43 46 -53
-10 -16 -43 -11 -54 8 -9 15 -10 14 -11 -6 0 -17 -5 -23 -17 -20 -23 4 -31 48
-9 48 19 0 21 16 4 23 -7 2 -45 2 -85 -1 l-72 -5 -7 28 c-7 27 -8 58 -5 132 1
28 6 34 34 42 42 12 49 12 136 1z m-209 -26 c0 -13 -21 -44 -30 -44 -14 0 -12
24 2 38 13 13 28 16 28 6z m427 -121 c-9 -9 -20 -13 -24 -9 -4 4 -1 11 7 16
25 16 35 11 17 -7z m-457 -33 c0 -5 -7 -10 -15 -10 -8 0 -15 5 -15 10 0 6 7
10 15 10 8 0 15 -4 15 -10z m48 -169 c3 -8 -1 -12 -9 -9 -7 2 -15 10 -17 17
-3 8 1 12 9 9 7 -2 15 -10 17 -17z m-10 -189 c2 -7 -7 -12 -23 -12 -24 0 -26
2 -15 15 14 17 31 16 38 -3z"/>
<path d="M4923 1866 c-23 -8 -56 -24 -72 -37 -16 -13 -41 -32 -54 -41 -32 -22
-88 -142 -58 -124 6 4 25 -4 41 -18 17 -14 26 -28 20 -31 -16 -10 -12 -25 5
-19 8 4 15 1 15 -4 0 -16 -18 -24 -25 -12 -3 5 -18 10 -32 10 -20 0 -24 4 -20
19 3 11 -1 22 -8 25 -21 8 -30 -94 -15 -175 6 -38 15 -69 19 -69 16 0 20 14
10 26 -18 22 17 29 46 10 27 -18 35 -42 10 -33 -24 10 -27 -11 -3 -28 20 -13
21 -17 8 -25 -24 -16 -45 -7 -42 18 2 15 -2 22 -12 22 -21 0 -20 -8 5 -50 34
-56 70 -90 128 -117 49 -24 61 -25 150 -20 117 6 151 19 151 58 0 20 6 28 25
33 23 6 24 8 11 21 -8 8 -24 15 -35 15 -31 0 -25 17 8 25 33 7 71 -11 72 -35
1 -30 38 66 39 101 0 60 -40 81 -58 30 -6 -17 -24 -37 -41 -46 -17 -8 -37 -28
-45 -43 -16 -32 -41 -46 -109 -62 -55 -12 -79 -7 -122 25 -17 12 -39 25 -50
27 -11 2 -19 10 -17 18 5 24 -19 69 -34 63 -8 -3 -14 0 -14 6 0 6 5 11 10 11
6 0 10 18 10 39 0 28 -5 41 -17 46 -17 6 -17 7 0 16 9 6 15 14 12 18 -8 13 46
171 59 171 19 1 56 37 56 55 0 14 3 15 15 5 12 -10 15 -10 15 3 0 8 -6 17 -12
20 -7 2 -10 8 -6 12 7 8 38 -18 38 -32 0 -4 13 -9 29 -10 46 -3 131 -45 131
-65 0 -9 5 -20 11 -23 5 -4 14 -18 19 -31 7 -16 17 -24 34 -24 42 0 76 18 76
40 0 18 -3 19 -20 10 -21 -11 -40 -6 -40 11 0 5 12 9 26 9 22 0 25 2 14 15 -7
8 -10 15 -6 15 3 0 -3 15 -13 33 -13 22 -25 31 -40 30 -14 -2 -21 3 -21 15 0
47 -183 79 -277 48z m337 -137 c0 -12 -27 -11 -35 1 -11 17 5 32 21 19 8 -6
14 -15 14 -20z m-437 -14 c-4 -15 -36 -12 -41 3 -3 9 3 13 19 10 13 -1 23 -7
22 -13z m375 4 c-2 -6 -8 -10 -13 -10 -5 0 -11 4 -13 10 -2 6 4 11 13 11 9 0
15 -5 13 -11z m-418 -159 c0 -5 -4 -10 -9 -10 -6 0 -13 5 -16 10 -3 6 1 10 9
10 9 0 16 -4 16 -10z m15 -41 c-4 -5 -20 -9 -38 -9 -33 0 -28 15 8 22 24 5 37
0 30 -13z m-35 -29 c0 -5 -7 -10 -16 -10 -8 0 -12 5 -9 10 3 6 10 10 16 10 5
0 9 -4 9 -10z m150 -190 c0 -5 11 -10 25 -10 14 0 25 -4 25 -10 0 -11 -63 -14
-73 -4 -8 8 3 34 14 34 5 0 9 -4 9 -10z m270 -9 c0 -5 -14 -14 -32 -20 -17 -6
-28 -14 -25 -18 10 -9 -23 -43 -41 -43 -12 0 -11 5 5 23 11 12 24 32 28 45 5
16 14 22 36 22 16 0 29 -4 29 -9z m-136 -37 c20 -8 21 -34 1 -34 -8 0 -15 2
-15 4 0 2 -3 11 -6 20 -7 18 -4 19 20 10z"/>
<path d="M4481 1843 c-13 -3 -33 -13 -44 -23 -19 -18 -20 -18 -46 1 -21 15
-33 18 -52 11 -13 -5 -53 -8 -89 -6 -36 2 -59 1 -52 -2 25 -12 11 -25 -23 -23
-19 2 -40 -2 -47 -9 -9 -9 -7 -12 10 -12 14 0 22 -6 22 -16 0 -10 -5 -14 -16
-10 -9 3 -12 2 -9 -5 4 -5 2 -16 -5 -24 -15 -18 -2 -241 13 -226 16 16 27 13
27 -5 0 -9 -9 -18 -20 -21 -17 -5 -19 -11 -14 -42 4 -20 8 -37 9 -39 2 -2 19
0 38 3 23 5 37 14 40 27 3 11 12 18 19 16 7 -3 18 2 23 9 7 9 39 16 87 20 70
5 75 7 70 27 -3 11 -15 28 -26 38 -21 17 -112 35 -123 24 -10 -10 -12 -56 -2
-56 22 0 6 -21 -27 -35 -46 -19 -44 -19 -44 9 0 16 7 27 19 31 22 7 29 42 30
149 1 44 6 73 14 78 6 4 48 8 92 9 195 2 232 4 249 18 15 13 15 15 0 32 -9 10
-14 25 -11 33 8 21 -49 31 -112 19z m-120 -68 c-1 -15 -24 -12 -29 3 -3 9 2
13 12 10 10 -1 17 -7 17 -13z m-181 -55 c0 -5 -4 -10 -10 -10 -5 0 -10 5 -10
10 0 6 5 10 10 10 6 0 10 -4 10 -10z m40 -180 c0 -30 -6 -35 -33 -24 -12 4
-12 10 -3 30 15 34 36 30 36 -6z"/>
<path d="M3670 1789 c-86 -39 -120 -88 -120 -174 0 -51 3 -59 40 -99 54 -59
148 -86 174 -51 10 14 13 14 31 1 20 -15 20 -15 -3 -16 -35 0 -17 -18 26 -26
94 -17 142 -56 142 -115 0 -36 -60 -86 -114 -94 -72 -11 -112 9 -161 80 -33
49 -46 61 -72 63 -25 2 -35 -2 -48 -22 -15 -23 -15 -28 0 -73 30 -88 96 -133
207 -141 114 -8 187 25 147 65 -9 9 -2 13 25 19 38 7 69 -7 47 -20 -6 -4 -11
-12 -11 -17 0 -18 73 56 86 88 24 57 -3 213 -37 213 -5 0 -22 9 -37 20 -30 21
-188 67 -198 57 -4 -4 -1 -14 7 -23 11 -14 9 -15 -17 -12 -18 2 -28 8 -26 17
5 25 -20 41 -64 41 -32 0 -44 4 -44 15 0 8 5 15 11 15 6 0 8 9 4 20 -3 11 0
32 9 47 8 16 20 42 27 59 16 39 42 56 74 48 27 -7 34 -24 10 -24 -8 0 -15 5
-15 11 0 8 -5 7 -15 -1 -20 -16 -3 -30 36 -30 14 0 48 -11 75 -25 34 -18 62
-25 91 -23 43 2 48 -2 39 -36 -4 -16 -8 -17 -20 -7 -19 16 -32 -4 -16 -24 43
-52 94 46 54 103 -14 21 -18 22 -33 9 -9 -9 -32 -16 -51 -18 -35 -3 -90 17
-90 33 0 4 -7 8 -15 8 -13 0 -14 4 -5 20 11 20 50 28 50 10 0 -5 -7 -10 -15
-10 -8 0 -15 -5 -15 -10 0 -7 26 -10 70 -8 38 2 70 5 70 8 0 3 -14 14 -30 24
-33 19 -120 30 -120 15 0 -5 -7 -9 -15 -9 -8 0 -15 5 -15 10 0 17 -83 10 -130
-11z m0 -34 c0 -8 -7 -15 -15 -15 -8 0 -15 7 -15 15 0 8 7 15 15 15 8 0 15 -7
15 -15z m55 -209 c18 -13 18 -14 -3 -25 -23 -12 -52 -14 -76 -5 -20 8 -21 24
-1 24 8 0 15 5 15 10 0 15 43 12 65 -4z m145 -26 c0 -5 -7 -10 -15 -10 -9 0
-18 -7 -21 -15 -7 -17 -44 -21 -44 -5 0 6 6 10 14 10 8 0 16 7 20 15 6 17 46
21 46 5z m87 -47 c-3 -24 -28 -42 -26 -19 0 5 -5 12 -11 16 -17 11 -3 30 21
30 16 0 19 -6 16 -27z m-47 -18 c0 -8 -4 -15 -10 -15 -5 0 -10 7 -10 15 0 8 5
15 10 15 6 0 10 -7 10 -15z m85 5 c3 -5 -1 -10 -9 -10 -9 0 -16 5 -16 10 0 6
4 10 9 10 6 0 13 -4 16 -10z"/>
<path d="M3108 1762 c-26 -15 -58 -66 -58 -91 0 -6 7 -11 15 -11 8 0 15 -4 15
-10 0 -5 -7 -10 -15 -10 -19 0 -44 -56 -86 -193 -18 -56 -47 -142 -66 -191
-40 -103 -40 -140 0 -170 26 -19 30 -19 54 -6 20 11 32 32 48 85 16 53 27 73
46 82 14 7 76 13 144 14 l119 1 23 -53 c27 -61 68 -109 94 -109 9 0 27 8 40
19 19 15 21 21 11 34 -9 11 -10 16 -2 19 13 4 -16 88 -30 88 -5 0 -8 8 -8 18
0 9 -29 80 -64 157 -36 77 -76 169 -89 204 -32 85 -84 141 -130 141 -19 0 -46
-8 -61 -18z m89 -178 c12 -21 22 -46 23 -56 0 -9 14 -46 30 -83 17 -37 30 -71
30 -76 0 -5 -31 -9 -70 -9 -65 0 -70 -2 -83 -26 -10 -19 -16 -23 -22 -14 -4 7
-2 16 6 21 10 6 8 9 -10 9 -27 0 -27 0 7 132 27 105 44 149 56 145 5 -2 20
-21 33 -43z"/>
<path d="M2323 1741 c-66 -11 -84 -34 -82 -101 2 -51 4 -57 20 -53 11 3 20 1
20 -3 8 -63 8 -64 -15 -64 -22 0 -23 -3 -19 -52 2 -29 7 -69 10 -88 3 -19 5
-58 4 -86 -2 -31 2 -55 9 -59 9 -6 9 -10 -1 -16 -11 -8 -11 -12 4 -23 21 -16
22 -26 2 -26 -8 0 -15 -9 -15 -20 0 -18 3 -19 20 -10 14 8 20 8 20 0 0 -6 -7
-13 -15 -16 -23 -9 -18 -42 9 -59 22 -15 26 -14 60 6 20 11 36 26 35 32 0 8
-2 8 -6 0 -2 -7 -12 -13 -20 -13 -13 0 -13 3 -3 15 10 12 9 16 -5 21 -15 6
-16 9 -4 18 30 24 40 58 37 124 -1 37 2 73 6 80 4 7 23 12 42 12 43 0 155 -55
149 -73 -8 -19 53 -87 72 -80 13 5 13 3 5 -14 -9 -16 -7 -26 11 -50 36 -48 55
-64 62 -52 4 6 13 8 21 5 23 -9 64 12 64 32 0 11 -11 31 -25 44 -14 14 -23 32
-20 40 7 18 -60 106 -104 138 -35 24 -41 50 -11 50 10 0 24 9 30 20 6 11 17
17 24 14 18 -7 63 58 72 103 10 50 -4 100 -38 139 -54 61 -76 68 -238 70 -80
2 -164 -1 -187 -5z m317 -51 c0 -5 -7 -10 -15 -10 -8 0 -15 5 -15 10 0 6 7 10
15 10 8 0 15 -4 15 -10z m64 -26 c13 -33 -16 -45 -50 -20 -18 14 -18 15 6 25
34 13 37 13 44 -5z m-151 -18 c30 -4 46 -2 42 4 -3 6 1 10 9 10 9 0 16 -6 16
-13 0 -7 9 -23 20 -34 16 -18 18 -30 13 -72 -4 -37 -11 -52 -24 -56 -11 -4
-19 -11 -19 -16 0 -5 -10 -9 -22 -10 -14 0 -17 -3 -9 -6 23 -9 52 -43 46 -53
-10 -16 -43 -11 -55 8 -10 15 -11 15 -7 -5 6 -30 -20 -38 -34 -11 -9 17 -8 24
5 33 9 7 16 15 16 19 0 3 -38 6 -84 6 -98 0 -96 -3 -96 109 l0 77 38 10 c36
10 49 10 145 0z m-223 -30 c0 -16 -14 -36 -26 -36 -16 0 -16 2 -8 24 5 14 34
24 34 12z m5 -95 c3 -5 -4 -13 -16 -16 -23 -8 -34 -1 -24 14 8 13 32 14 40 2z
m420 -21 c-10 -11 -21 -17 -24 -14 -3 3 3 12 13 20 28 20 32 17 11 -6z m-455
-28 c0 -13 -12 -22 -22 -16 -10 6 -1 24 13 24 5 0 9 -4 9 -8z m47 -178 c-9 -9
-28 6 -21 18 4 6 10 6 17 -1 6 -6 8 -13 4 -17z m-7 -183 c0 -5 -9 -11 -20 -14
-22 -6 -26 3 -8 21 11 11 28 7 28 -7z"/>
<path d="M1966 1685 c-8 -19 -22 -35 -30 -35 -22 0 -20 37 2 49 14 9 10 10
-19 11 -20 0 -39 -3 -43 -7 -3 -4 -23 -12 -44 -19 -31 -11 -38 -11 -45 1 -6
11 -26 15 -67 15 -82 0 -110 -12 -110 -49 0 -44 19 -53 112 -52 46 0 88 -3 95
-7 11 -7 36 -288 33 -380 0 -24 4 -50 10 -57 8 -9 8 -15 0 -20 -18 -11 -11
-55 15 -80 24 -25 69 -33 80 -15 3 6 -1 7 -9 4 -11 -4 -16 0 -16 10 0 11 9 16
31 16 30 0 31 2 25 31 -3 17 -6 35 -6 40 0 5 -7 9 -15 9 -19 0 -19 10 1 24 14
10 14 34 4 215 -12 215 -11 220 31 221 9 0 22 7 29 15 7 8 21 15 32 15 10 0
21 -7 24 -15 4 -8 13 -15 21 -15 8 0 11 5 7 12 -5 8 0 9 15 5 27 -7 53 18 49
46 -4 32 -45 47 -125 47 l-73 0 -14 -35z m-76 -26 c0 -11 -27 -12 -34 0 -3 4
-3 11 0 14 8 8 34 -3 34 -14z m235 1 c-3 -5 -13 -10 -21 -10 -8 0 -12 5 -9 10
3 6 13 10 21 10 8 0 12 -4 9 -10z m-335 -30 c0 -12 -28 -25 -36 -17 -9 9 6 27
22 27 8 0 14 -5 14 -10z m128 -60 c6 0 14 -5 18 -11 5 -9 -1 -10 -22 -5 -31 8
-46 24 -37 40 3 5 11 2 18 -7 7 -10 17 -17 23 -17z m0 -58 c3 -9 -2 -13 -14
-10 -9 1 -19 9 -22 16 -3 9 2 13 14 10 9 -1 19 -9 22 -16z m-8 -42 c0 -5 -4
-10 -10 -10 -5 0 -10 5 -10 10 0 6 5 10 10 10 6 0 10 -4 10 -10z m11 -30 c26
-14 24 -32 -3 -28 -13 2 -24 11 -26 21 -4 20 2 21 29 7z m-13 -178 c2 -7 -3
-12 -12 -12 -9 0 -16 7 -16 16 0 17 22 14 28 -4z m37 -42 c-3 -5 -10 -10 -16
-10 -5 0 -9 5 -9 10 0 6 7 10 16 10 8 0 12 -4 9 -10z m-25 -30 c0 -5 -12 -10
-26 -10 -14 0 -23 4 -19 10 3 6 15 10 26 10 10 0 19 -4 19 -10z"/>
<path d="M1116 1651 c-29 -31 -36 -87 -26 -201 6 -58 14 -179 19 -269 11 -193
12 -197 99 -194 101 2 346 21 365 28 19 8 24 64 6 82 -7 7 -62 10 -169 6 -87
-2 -160 -1 -163 4 -3 5 -9 77 -13 161 -4 83 -10 152 -14 152 -5 0 -6 44 -3 98
5 115 -6 145 -53 150 -20 2 -36 -4 -48 -17z"/>
<path d="M960 1636 c0 -17 27 -29 35 -16 4 6 3 15 0 20 -9 15 -35 12 -35 -4z"/>
<path d="M467 1619 c-8 -11 -12 -30 -9 -42 7 -30 53 -68 74 -61 10 3 18 -1 20
-11 3 -14 6 -14 22 -2 15 11 17 21 12 52 -14 71 -87 111 -119 64z"/>
<path d="M887 1613 c-22 -21 26 -59 58 -47 9 4 15 0 15 -9 0 -10 -13 -19 -36
-23 l-35 -6 2 -67 c2 -36 8 -74 14 -84 6 -12 7 -20 0 -25 -5 -4 -11 -52 -11
-107 -2 -137 -4 -148 -34 -155 l-25 -6 28 -7 c57 -15 15 -27 -71 -21 -104 7
-151 27 -172 71 -8 18 -21 33 -29 33 -10 0 -11 3 -3 13 8 9 8 40 3 97 -5 46
-7 90 -4 97 3 7 2 34 -2 59 -5 34 -10 44 -21 40 -8 -3 -14 -1 -14 4 0 6 -9 10
-20 10 -11 0 -28 9 -37 20 -17 20 -43 27 -43 12 0 -4 5 -13 11 -19 8 -8 8 -17
-1 -32 -22 -42 -10 -56 45 -53 47 2 49 2 30 -13 -12 -10 -30 -14 -47 -11 -26
5 -28 3 -28 -24 0 -19 5 -30 14 -30 7 0 19 -6 25 -14 16 -19 -5 -32 -24 -16
-13 11 -15 7 -15 -22 0 -20 3 -56 6 -82 6 -38 12 -50 40 -67 38 -23 44 -39 14
-39 -22 0 -25 -7 -10 -30 7 -11 25 -14 74 -12 68 4 106 -3 106 -19 0 -5 -29
-6 -71 -3 -85 8 -91 -6 -19 -44 40 -21 55 -23 140 -19 176 8 243 51 275 172
15 61 21 246 8 259 -4 4 -8 29 -8 54 0 39 -3 47 -17 44 -22 -4 -23 11 -3 28
20 16 19 30 -2 46 -17 13 -17 13 0 14 33 0 17 20 -18 20 -24 0 -35 -5 -35 -15
0 -17 -9 -19 -29 -6 -12 8 -12 12 -2 25 11 13 11 16 -1 16 -8 0 -18 -3 -21 -7z
m61 -115 c-3 -7 -15 -15 -28 -16 -21 -3 -22 -2 -11 12 16 19 44 21 39 4z m52
-28 c0 -5 -7 -10 -16 -10 -8 0 -12 5 -9 10 3 6 10 10 16 10 5 0 9 -4 9 -10z
m10 -170 c0 -5 -4 -10 -9 -10 -6 0 -13 5 -16 10 -3 6 1 10 9 10 9 0 16 -4 16
-10z"/>
<path d="M2240 1560 c0 -5 5 -10 11 -10 5 0 7 5 4 10 -3 6 -8 10 -11 10 -2 0
-4 -4 -4 -10z"/>
<path d="M4429 1562 c-12 -5 -14 -13 -8 -29 5 -13 13 -23 19 -23 5 0 10 -6 10
-14 0 -22 48 -26 53 -4 3 10 12 18 21 18 10 0 13 -6 10 -15 -5 -11 1 -15 23
-15 52 0 68 35 33 70 -16 16 -33 20 -82 19 -35 0 -70 -3 -79 -7z"/>
<path d="M6070 1484 c-14 -8 -40 -14 -59 -14 l-33 0 4 -96 c5 -126 8 -128 143
-119 55 3 152 7 216 8 99 2 120 5 138 21 26 24 27 62 2 76 -24 12 -127 13
-201 1 -30 -5 -82 -6 -115 -3 l-60 7 3 61 c2 34 0 64 -5 66 -4 3 -19 -1 -33
-8z m-20 -83 c-13 -26 -27 -34 -35 -21 -8 14 13 40 32 40 10 0 11 -4 3 -19z
m76 -82 c3 -6 -1 -18 -10 -27 -15 -15 -16 -14 -16 11 0 27 13 36 26 16z m270
-47 c-10 -10 -29 15 -21 28 6 9 10 8 17 -4 6 -10 7 -20 4 -24z"/>
<path d="M4238 1390 c-9 -6 -35 -11 -57 -13 l-40 -2 3 -93 c3 -108 11 -122 77
-124 121 -4 395 15 417 28 25 16 30 55 8 73 -22 18 -102 24 -153 11 -58 -15
-200 -15 -218 0 -9 8 -11 28 -8 70 6 61 2 67 -29 50z m-28 -90 c-10 -19 -40
-28 -40 -12 0 13 23 32 37 32 11 0 11 -5 3 -20z m78 -87 c-5 -25 -28 -28 -28
-4 0 12 6 21 16 21 9 0 14 -7 12 -17z m270 -22 c3 -8 -1 -12 -9 -9 -7 2 -15
10 -17 17 -3 8 1 12 9 9 7 -2 15 -10 17 -17z"/>
<path d="M7800 1281 c-63 -4 -124 -12 -136 -18 -14 -8 -24 -9 -31 -2 -7 7 -79
6 -219 -1 -594 -32 -619 -34 -608 -51 3 -5 -4 -9 -15 -9 -10 0 -21 5 -23 12
-6 17 -516 -5 -547 -23 -18 -12 -23 -12 -30 0 -7 10 -20 12 -52 7 -24 -4 -109
-8 -189 -10 -144 -2 -385 -25 -375 -34 3 -3 -5 -10 -17 -16 -12 -6 -22 -22
-24 -38 -3 -33 -18 -32 233 -18 436 24 538 32 557 42 15 8 21 8 24 -1 8 -23
47 -11 64 19 21 37 33 38 46 2 l9 -27 94 7 c52 3 108 7 126 7 25 1 31 4 26 17
-4 12 -1 15 13 12 10 -2 18 -10 17 -16 -2 -7 2 -12 7 -12 6 0 10 5 10 11 0 8
4 8 15 -1 10 -9 26 -9 61 -2 26 6 53 8 61 5 23 -9 497 19 510 29 7 6 24 7 39
4 24 -6 485 12 492 19 6 6 -10 95 -17 93 -3 -1 -58 -4 -121 -7z m-365 -71 c-3
-5 -10 -10 -16 -10 -5 0 -9 5 -9 10 0 6 7 10 16 10 8 0 12 -4 9 -10z m-720
-20 c-3 -5 -10 -10 -16 -10 -5 0 -9 5 -9 10 0 6 7 10 16 10 8 0 12 -4 9 -10z
m-645 -31 c0 -18 -2 -19 -15 -9 -15 12 -12 30 6 30 5 0 9 -10 9 -21z m270 12
c0 -9 -41 -23 -48 -16 -2 2 -1 8 3 14 8 13 45 15 45 2z m-205 -40 c7 -12 -12
-24 -25 -16 -11 7 -4 25 10 25 5 0 11 -4 15 -9z m40 -11 c-3 -5 -10 -10 -16
-10 -5 0 -9 5 -9 10 0 6 7 10 16 10 8 0 12 -4 9 -10z m-567 -12 c-5 -15 -48
-24 -48 -10 0 14 12 22 33 22 10 0 17 -5 15 -12z"/>
<path d="M5320 1153 c-30 -2 -136 -8 -235 -15 -99 -6 -220 -13 -270 -15 -250
-8 -364 -14 -405 -22 -25 -5 -62 -6 -83 -4 -45 6 -100 -14 -93 -33 3 -8 -1
-14 -8 -14 -8 0 -17 7 -20 16 -4 9 -9 14 -13 11 -3 -4 -12 -2 -19 4 -9 7 -199
2 -661 -20 -772 -37 -1053 -58 -1046 -79 4 -9 0 -12 -13 -10 -13 2 -20 -5 -25
-31 l-7 -34 151 7 c318 14 373 17 407 23 19 3 56 5 81 4 26 -1 50 2 53 7 3 5
49 7 103 5 54 -3 179 0 278 6 402 25 510 31 734 41 179 9 239 15 257 27 15 10
24 11 24 4 0 -6 14 -11 30 -11 18 0 30 5 30 13 0 8 8 22 19 31 17 16 19 15 25
-15 l6 -32 118 7 c212 12 251 17 245 32 -4 10 5 14 31 14 41 0 46 -7 14 -20
-18 -8 -13 -9 22 -5 25 2 122 7 215 10 199 7 270 24 218 54 -15 8 -16 12 -5
22 23 24 12 30 -45 27 -32 -2 -83 -4 -113 -5z m-360 -42 c0 -12 -20 -25 -27
-18 -7 7 6 27 18 27 5 0 9 -4 9 -9z m252 -33 c-15 -15 -26 -4 -18 18 5 13 9
15 18 6 9 -9 9 -15 0 -24z m-715 -5 c4 -10 -37 -26 -45 -18 -3 3 1 12 8 20 14
17 31 16 37 -2z m-525 -28 c0 -5 -5 -11 -11 -13 -6 -2 -11 4 -11 13 0 9 5 15
11 13 6 -2 11 -8 11 -13z m328 -15 c0 -5 -9 -10 -21 -10 -11 0 -17 5 -14 10 3
6 13 10 21 10 8 0 14 -4 14 -10z m40 2 c0 -13 -12 -22 -22 -16 -10 6 -1 24 13
24 5 0 9 -4 9 -8z m-1850 -102 c-21 -14 -30 -12 -30 4 0 18 22 27 35 14 6 -6
5 -12 -5 -18z"/>
<path d="M2180 989 c-178 -10 -283 -24 -288 -39 -6 -16 -42 -12 -42 5 0 18 3
18 -170 5 -74 -5 -232 -14 -350 -20 -319 -15 -370 -20 -370 -35 0 -7 7 -15 15
-19 8 -3 15 -12 15 -21 0 -11 -11 -15 -39 -15 -39 0 -61 13 -42 25 5 3 9 15 8
26 -1 19 -6 20 -72 15 -38 -3 -161 -11 -272 -17 l-203 -12 0 -50 0 -50 38 7
c20 3 47 6 60 6 13 0 20 4 17 10 -3 6 0 10 9 10 8 0 16 -4 18 -10 5 -16 349 8
369 26 20 18 33 18 25 -1 -5 -13 4 -15 57 -10 34 3 244 15 467 26 233 12 406
25 408 30 3 6 9 5 18 -2 7 -6 21 -8 31 -5 9 4 99 9 198 11 100 3 204 10 231
15 27 6 55 11 62 12 17 2 15 27 -3 35 -14 5 -14 8 0 29 15 23 15 24 -12 23
-16 -1 -98 -6 -183 -10z m156 -67 c-10 -10 -29 15 -21 28 6 9 10 8 17 -4 6
-10 7 -20 4 -24z m-544 6 c-6 -6 -15 -8 -19 -4 -4 4 -1 11 7 16 19 12 27 3 12
-12z m38 -38 c0 -5 -9 -10 -20 -10 -11 0 -20 5 -20 10 0 6 9 10 20 10 11 0 20
-4 20 -10z"/>
</g>
</svg>
